<?xml version="1.0" standalone="no"?>
<!DOCTYPE svg PUBLIC "-//W3C//DTD SVG 20010904//EN"
 "http://www.w3.org/TR/2001/REC-SVG-20010904/DTD/svg10.dtd">
<svg version="1.0" xmlns="http://www.w3.org/2000/svg"
 width="135.000000pt" height="37.000000pt" viewBox="0 0 135.000000 37.000000"
 preserveAspectRatio="xMidYMid meet">

<g transform="translate(0.000000,37.000000) scale(0.100000,-0.100000)"
fill="#000000" stroke="none">
<path d="M0 185 l0 -185 675 0 675 0 0 185 0 185 -675 0 -675 0 0 -185z m190
75 c0 -5 -16 -10 -35 -10 -48 0 -75 -29 -75 -79 0 -44 10 -54 51 -53 16 0 29
-4 29 -9 0 -13 -74 -11 -88 3 -7 7 -12 31 -12 54 0 61 38 104 91 104 21 0 39
-4 39 -10z m122 -15 c9 -19 8 -29 -6 -50 -9 -14 -21 -25 -26 -25 -5 0 -2 -16
6 -35 12 -29 12 -35 1 -35 -8 0 -18 15 -23 32 -14 47 -41 49 -50 4 -3 -20 -11
-36 -16 -36 -10 0 -8 22 14 123 10 46 10 47 49 47 32 0 41 -5 51 -25z m154 0
c21 -32 13 -89 -17 -121 -29 -31 -93 -34 -109 -5 -22 41 -2 131 32 144 36 15
78 6 94 -18z m134 14 c0 -7 -9 -9 -23 -5 -29 7 -60 -14 -52 -34 3 -8 19 -23
35 -32 55 -32 29 -88 -41 -88 -21 0 -39 4 -39 10 0 5 15 9 33 8 66 -2 75 26
22 66 -38 30 -43 46 -19 70 18 18 84 22 84 5z m120 0 c0 -7 -9 -9 -22 -6 -26
7 -58 -8 -58 -28 0 -8 13 -21 29 -29 42 -22 52 -54 25 -80 -17 -17 -94 -22
-94 -6 0 5 16 9 36 8 32 -1 53 12 54 34 0 4 -14 15 -30 25 -60 35 -47 93 20
93 23 0 40 -5 40 -11z m55 -29 l-7 -40 40 0 c39 0 40 1 47 40 4 22 11 40 16
40 12 0 12 -8 -8 -95 -17 -78 -40 -107 -28 -35 l7 40 -40 0 c-39 0 -40 -1 -47
-40 -4 -22 -11 -40 -17 -40 -10 0 -8 21 14 123 12 58 33 64 23 7z m261 15 c20
-31 13 -81 -17 -120 -18 -22 -28 -26 -63 -23 -33 2 -43 8 -54 30 -17 36 -1
101 31 123 34 24 84 19 103 -10z m118 18 c-33 -3 -43 -9 -48 -26 -10 -40 -6
-46 32 -50 l37 -4 -42 -1 c-30 -1 -43 -6 -43 -16 0 -8 -3 -21 -6 -30 -5 -13 1
-16 30 -16 20 0 36 -4 36 -10 0 -5 -21 -10 -46 -10 l-46 0 7 38 c3 20 11 58
17 85 l10 47 51 -2 c49 -1 50 -2 11 -5z m136 -4 c0 -7 -9 -9 -23 -5 -29 7 -60
-14 -52 -34 3 -8 19 -23 35 -32 55 -32 29 -88 -41 -88 -21 0 -39 4 -39 10 0 5
15 9 33 8 66 -2 75 26 22 66 -38 30 -43 46 -19 70 18 18 84 22 84 5z"/>
<path d="M234 225 c-8 -43 -4 -48 29 -40 30 8 41 40 20 60 -24 25 -42 17 -49
-20z"/>
<path d="M393 250 c-28 -11 -43 -40 -43 -85 0 -28 5 -37 22 -44 12 -4 31 -6
41 -3 22 6 50 64 45 94 -4 29 -38 48 -65 38z"/>
<path d="M959 246 c-26 -13 -49 -68 -41 -99 6 -25 41 -37 70 -24 27 13 48 78
33 106 -14 26 -34 31 -62 17z"/>
</g>
</svg>
